<mxfile host="app.diagrams.net" agent="Mozilla/5.0 (Windows NT 10.0; Win64; x64) AppleWebKit/537.36 (KHTML, like Gecko) Chrome/134.0.0.0 YaBrowser/25.4.0.0 Safari/537.36" version="27.0.3">
  <diagram name="Страница — 1" id="B_l0hDeAWBQDnPEm5dOt">
    <mxGraphModel dx="994" dy="580" grid="1" gridSize="10" guides="1" tooltips="1" connect="1" arrows="1" fold="1" page="1" pageScale="1" pageWidth="1169" pageHeight="827" math="0" shadow="0">
      <root>
        <mxCell id="0" />
        <mxCell id="1" parent="0" />
        <mxCell id="xXVZDHe9rLkbCVfbIxS_-1" value="Пользователь" style="shape=umlActor;verticalLabelPosition=bottom;verticalAlign=top;html=1;outlineConnect=0;" vertex="1" parent="1">
          <mxGeometry x="327" y="384" width="30" height="60" as="geometry" />
        </mxCell>
        <mxCell id="xXVZDHe9rLkbCVfbIxS_-4" value="Музыкальный диктант" style="rounded=0;whiteSpace=wrap;html=1;" vertex="1" parent="1">
          <mxGeometry x="497" y="294" width="120" height="50" as="geometry" />
        </mxCell>
        <mxCell id="xXVZDHe9rLkbCVfbIxS_-5" value="" style="endArrow=classic;html=1;rounded=0;entryX=0;entryY=1;entryDx=0;entryDy=0;" edge="1" parent="1" target="xXVZDHe9rLkbCVfbIxS_-4">
          <mxGeometry width="50" height="50" relative="1" as="geometry">
            <mxPoint x="377" y="414" as="sourcePoint" />
            <mxPoint x="797" y="404" as="targetPoint" />
          </mxGeometry>
        </mxCell>
        <mxCell id="xXVZDHe9rLkbCVfbIxS_-6" value="" style="endArrow=classic;html=1;rounded=0;" edge="1" parent="1">
          <mxGeometry width="50" height="50" relative="1" as="geometry">
            <mxPoint x="397" y="389" as="sourcePoint" />
            <mxPoint x="467" y="349" as="targetPoint" />
          </mxGeometry>
        </mxCell>
        <mxCell id="xXVZDHe9rLkbCVfbIxS_-7" value="1: Старт&amp;nbsp;&lt;div&gt;муз. диктанта&lt;/div&gt;" style="text;html=1;align=center;verticalAlign=middle;resizable=0;points=[];autosize=1;strokeColor=none;fillColor=none;" vertex="1" parent="1">
          <mxGeometry x="357" y="304" width="100" height="40" as="geometry" />
        </mxCell>
        <mxCell id="xXVZDHe9rLkbCVfbIxS_-8" value="Вопрос" style="rounded=0;whiteSpace=wrap;html=1;" vertex="1" parent="1">
          <mxGeometry x="727" y="389" width="120" height="50" as="geometry" />
        </mxCell>
        <mxCell id="xXVZDHe9rLkbCVfbIxS_-9" value="" style="endArrow=classic;html=1;rounded=0;exitX=1;exitY=1;exitDx=0;exitDy=0;entryX=0;entryY=0;entryDx=0;entryDy=0;" edge="1" parent="1" source="xXVZDHe9rLkbCVfbIxS_-4" target="xXVZDHe9rLkbCVfbIxS_-8">
          <mxGeometry width="50" height="50" relative="1" as="geometry">
            <mxPoint x="747" y="454" as="sourcePoint" />
            <mxPoint x="797" y="404" as="targetPoint" />
          </mxGeometry>
        </mxCell>
        <mxCell id="xXVZDHe9rLkbCVfbIxS_-10" value="2: Загрузка вопроса&lt;div&gt;муз. диктанта&lt;/div&gt;" style="text;html=1;align=center;verticalAlign=middle;resizable=0;points=[];autosize=1;strokeColor=none;fillColor=none;" vertex="1" parent="1">
          <mxGeometry x="657" y="304" width="130" height="40" as="geometry" />
        </mxCell>
        <mxCell id="xXVZDHe9rLkbCVfbIxS_-11" value="" style="endArrow=classic;html=1;rounded=0;" edge="1" parent="1">
          <mxGeometry width="50" height="50" relative="1" as="geometry">
            <mxPoint x="647" y="344" as="sourcePoint" />
            <mxPoint x="717" y="374" as="targetPoint" />
          </mxGeometry>
        </mxCell>
        <mxCell id="xXVZDHe9rLkbCVfbIxS_-12" value="Результат" style="rounded=0;whiteSpace=wrap;html=1;" vertex="1" parent="1">
          <mxGeometry x="497" y="484" width="120" height="50" as="geometry" />
        </mxCell>
        <mxCell id="xXVZDHe9rLkbCVfbIxS_-13" value="" style="endArrow=classic;html=1;rounded=0;exitX=0;exitY=1;exitDx=0;exitDy=0;entryX=1;entryY=0;entryDx=0;entryDy=0;" edge="1" parent="1" source="xXVZDHe9rLkbCVfbIxS_-8" target="xXVZDHe9rLkbCVfbIxS_-12">
          <mxGeometry width="50" height="50" relative="1" as="geometry">
            <mxPoint x="747" y="454" as="sourcePoint" />
            <mxPoint x="797" y="404" as="targetPoint" />
          </mxGeometry>
        </mxCell>
        <mxCell id="xXVZDHe9rLkbCVfbIxS_-14" value="3: Выбор варианта ответа&amp;nbsp;&lt;div&gt;4. Подсчёт баллов&lt;/div&gt;" style="text;html=1;align=center;verticalAlign=middle;resizable=0;points=[];autosize=1;strokeColor=none;fillColor=none;" vertex="1" parent="1">
          <mxGeometry x="647" y="489" width="170" height="40" as="geometry" />
        </mxCell>
        <mxCell id="xXVZDHe9rLkbCVfbIxS_-15" value="" style="endArrow=classic;html=1;rounded=0;exitX=0;exitY=0;exitDx=0;exitDy=0;" edge="1" parent="1" source="xXVZDHe9rLkbCVfbIxS_-12">
          <mxGeometry width="50" height="50" relative="1" as="geometry">
            <mxPoint x="747" y="454" as="sourcePoint" />
            <mxPoint x="377" y="434" as="targetPoint" />
          </mxGeometry>
        </mxCell>
        <mxCell id="xXVZDHe9rLkbCVfbIxS_-16" value="" style="endArrow=classic;html=1;rounded=0;" edge="1" parent="1">
          <mxGeometry width="50" height="50" relative="1" as="geometry">
            <mxPoint x="467" y="484" as="sourcePoint" />
            <mxPoint x="397" y="454" as="targetPoint" />
          </mxGeometry>
        </mxCell>
        <mxCell id="xXVZDHe9rLkbCVfbIxS_-17" value="5. Вывод итоговой оценки&amp;nbsp;&lt;div&gt;за муз. диктант&lt;/div&gt;" style="text;html=1;align=center;verticalAlign=middle;resizable=0;points=[];autosize=1;strokeColor=none;fillColor=none;" vertex="1" parent="1">
          <mxGeometry x="322" y="484" width="170" height="40" as="geometry" />
        </mxCell>
        <mxCell id="xXVZDHe9rLkbCVfbIxS_-18" value="" style="endArrow=classic;html=1;rounded=0;" edge="1" parent="1">
          <mxGeometry width="50" height="50" relative="1" as="geometry">
            <mxPoint x="717" y="454" as="sourcePoint" />
            <mxPoint x="647" y="484" as="targetPoint" />
          </mxGeometry>
        </mxCell>
      </root>
    </mxGraphModel>
  </diagram>
</mxfile>
